<svg width="173" height="60" viewBox="0 0 173 60" fill="none" xmlns="http://www.w3.org/2000/svg">
<path fill-rule="evenodd" clip-rule="evenodd" d="M141.228 58.8833C139.635 57.3522 139.586 54.82 141.117 53.2276L163.451 30L141.117 6.77242C139.586 5.18001 139.635 2.64783 141.228 1.11666C142.82 -0.414515 145.352 -0.364867 146.883 1.22756L170.551 25.8413C172.784 28.164 172.784 31.836 170.551 34.1586L146.883 58.7724C145.352 60.3648 142.82 60.4145 141.228 58.8833ZM106.228 58.8833C104.635 57.3521 104.586 54.82 106.117 53.2276L128.451 30L106.117 6.77242C104.586 5.18 104.635 2.64783 106.228 1.11666C107.82 -0.414518 110.352 -0.36487 111.883 1.22755L135.551 25.8413C137.784 28.164 137.784 31.836 135.551 34.1586L111.883 58.7724C110.352 60.3648 107.82 60.4145 106.228 58.8833ZM71.1168 53.2276C69.5856 54.82 69.6353 57.3521 71.2277 58.8833C72.8201 60.4145 75.3523 60.3648 76.8835 58.7724L100.551 34.1586C102.784 31.836 102.784 28.164 100.551 25.8413L76.8835 1.22755C75.3523 -0.364873 72.8201 -0.414521 71.2277 1.11665C69.6353 2.64783 69.5857 5.18 71.1168 6.77242L93.451 30L71.1168 53.2276ZM36.2277 58.8833C34.6353 57.3521 34.5856 54.82 36.1168 53.2275L58.451 30L36.1168 6.77241C34.5857 5.18 34.6353 2.64782 36.2277 1.11665C37.8201 -0.414524 40.3523 -0.364876 41.8835 1.22755L65.5506 25.8413C67.7839 28.164 67.7839 31.836 65.5506 34.1586L41.8835 58.7724C40.3523 60.3648 37.8201 60.4145 36.2277 58.8833ZM1.11682 53.2275C-0.414352 54.82 -0.3647 57.3521 1.22772 58.8833C2.82014 60.4145 5.35231 60.3648 6.88348 58.7724L30.5506 34.1586C32.7839 31.836 32.7839 28.164 30.5506 25.8413L6.88349 1.22754C5.35232 -0.364879 2.82015 -0.414527 1.22773 1.11665C-0.364695 2.64782 -0.414348 5.17999 1.11683 6.77241L23.451 30L1.11682 53.2275Z" fill="#535353"/>
</svg>
