<svg xmlns="http://www.w3.org/2000/svg" width="195" height="72" viewBox="0 0 195 72" fill="none">
    <path
        d="M163.312 1.70239C162.304 0.64389 160.527 -1.48536e-08 158.615 0L129.906 2.22961e-07C125.573 2.56614e-07 122.925 3.09942 125.209 5.49761L152.452 34.1024C153.559 35.2647 153.559 36.7353 152.452 37.8976L125.209 66.5024C122.925 68.9006 125.573 72 129.906 72H158.615C160.527 72 162.304 71.3561 163.312 70.2976L194.17 37.8976C195.277 36.7353 195.277 35.2647 194.17 34.1024L163.312 1.70239Z"
        fill="#F9F9F9" />
    <path
        d="M101.127 1.70239C100.119 0.64389 98.3421 4.68104e-07 96.4296 4.82958e-07L67.7214 7.05919e-07C63.3882 7.39572e-07 60.74 3.09942 63.0241 5.49761L90.2673 34.1024C91.3743 35.2647 91.3743 36.7353 90.2673 37.8976L63.0241 66.5024C60.74 68.9006 63.3882 72 67.7213 72H96.4296C98.3421 72 100.119 71.3561 101.127 70.2976L131.985 37.8976C133.092 36.7353 133.092 35.2647 131.985 34.1024L101.127 1.70239Z"
        fill="#F9F9F9" />
    <path
        d="M38.9419 1.70239C37.9338 0.643891 36.1571 9.51062e-07 34.2446 9.65915e-07L5.53635 1.18888e-06C1.20324 1.22253e-06 -1.44499 3.09942 0.83905 5.49761L28.0823 34.1024C29.1893 35.2647 29.1893 36.7353 28.0823 37.8976L0.839051 66.5024C-1.44499 68.9006 1.20323 72 5.53634 72H34.2446C36.1571 72 37.9338 71.3561 38.9419 70.2976L69.7997 37.8976C70.9068 36.7353 70.9068 35.2647 69.7997 34.1024L38.9419 1.70239Z"
        fill="#F9F9F9" />
</svg>