<svg width="33" height="22" viewBox="0 0 33 22" fill="none" xmlns="http://www.w3.org/2000/svg">
<path fill-rule="evenodd" clip-rule="evenodd" d="M23.4411 21.7909C23.0773 21.4788 23.0351 20.9306 23.347 20.5664L31.0558 11.5652C31.3343 11.2399 31.3343 10.7601 31.0558 10.4348L23.347 1.4336C23.0351 1.06945 23.0773 0.521215 23.4411 0.209085C23.8049 -0.103043 24.3527 -0.0608719 24.6646 0.303277L32.3733 9.30452C33.2089 10.2802 33.2089 11.7198 32.3733 12.6955L24.6646 21.6967C24.3527 22.0609 23.8049 22.103 23.4411 21.7909ZM11.8721 21.7909C11.5082 21.4788 11.4661 20.9306 11.7779 20.5664L19.4867 11.5652C19.7652 11.2399 19.7652 10.7601 19.4867 10.4348L11.7779 1.4336C11.4661 1.06945 11.5082 0.521214 11.8721 0.209084C12.2359 -0.103044 12.7837 -0.0608729 13.0955 0.303276L20.8043 9.30452C21.6398 10.2802 21.6398 11.7198 20.8043 12.6955L13.0955 21.6967C12.7837 22.0609 12.2359 22.103 11.8721 21.7909ZM0.208897 20.5664C-0.102962 20.9306 -0.0608291 21.4788 0.303009 21.7909C0.666851 22.103 1.21461 22.0609 1.52648 21.6967L9.23525 12.6955C10.0708 11.7198 10.0708 10.2802 9.23525 9.30452L1.52648 0.303275C1.21462 -0.0608739 0.666853 -0.103045 0.303015 0.209083C-0.0608273 0.521213 -0.102961 1.06945 0.208902 1.4336L7.91766 10.4348C8.19618 10.7601 8.19618 11.2399 7.91766 11.5652L0.208897 20.5664Z" fill="#F8F8F8"/>
</svg>
