<?xml version="1.0" encoding="UTF-8" standalone="no"?>
<svg
   width="14"
   height="11"
   viewBox="0 0 14 11"
   fill="none"
   version="1.1"
   id="svg1"
   sodipodi:docname="envelope.svg"
   inkscape:version="1.4.3 (0d15f75, 2025-12-25)"
   xmlns:inkscape="http://www.inkscape.org/namespaces/inkscape"
   xmlns:sodipodi="http://sodipodi.sourceforge.net/DTD/sodipodi-0.dtd"
   xmlns="http://www.w3.org/2000/svg"
   xmlns:svg="http://www.w3.org/2000/svg">
  <defs
     id="defs1" />
  <sodipodi:namedview
     id="namedview1"
     pagecolor="#ffffff"
     bordercolor="#000000"
     borderopacity="0.25"
     inkscape:showpageshadow="2"
     inkscape:pageopacity="0.0"
     inkscape:pagecheckerboard="0"
     inkscape:deskcolor="#d1d1d1"
     inkscape:zoom="106.09091"
     inkscape:cx="7.0034276"
     inkscape:cy="5.5"
     inkscape:window-width="3440"
     inkscape:window-height="1369"
     inkscape:window-x="-8"
     inkscape:window-y="-8"
     inkscape:window-maximized="1"
     inkscape:current-layer="svg1" />
  <path
     style="baseline-shift:baseline;display:inline;overflow:visible;vector-effect:none;fill:#bf1618;stroke-linecap:round;stroke-linejoin:round;enable-background:accumulate;stop-color:#000000;stop-opacity:1;opacity:1"
     d="M 2.8828125,0 C 2.1361525,0 1.6641778,-0.03747402 1.1464844,0.21679688 0.75673415,0.40820141 0.43559339,0.71686092 0.23242188,1.1015625 -0.03910215,1.6156035 0,2.0866406 0,2.8066406 v 4.8867188 c 0,0.72 -0.03910215,1.1910371 0.23242188,1.7050781 C 0.43576786,9.7832656 0.75663313,10.091642 1.1464844,10.283203 1.6642726,10.538105 2.1355294,10.5 2.8808594,10.5 h 7.7382816 c 0.744473,0 1.215691,0.03705 1.732422,-0.216797 C 12.74191,10.091821 13.06397,9.7834 13.267578,9.3984375 13.538582,8.8852646 13.5,8.4140225 13.5,7.6953125 v -4.890625 c 0,-0.71871 0.03972,-1.1889936 -0.232422,-1.703125 C 13.063908,0.71592515 12.740941,0.40796537 12.351563,0.21679688 11.834393,-0.03727124 11.362961,0 10.617188,0 Z m 0,1.5 h 7.7343755 c 0.0299,0 0.01457,0.00184 0.04297,0.00195 C 9.2926299,2.4929422 7.5664063,3.7539062 7.5664062,3.7539063 7.1311596,4.0610371 6.9583642,4.1579331 6.9023437,4.171875 c -0.099495,0.024822 -0.205192,0.024822 -0.3046875,0 C 6.5409377,4.1577594 6.3760209,4.06573 5.9238281,3.7460938 L 2.8398438,1.5019531 C 2.8681972,1.501837 2.8529681,1.5 2.8828125,1.5 Z M 11.976563,2.3984375 C 11.985554,2.5523945 12,2.5132941 12,2.8046875 v 4.890625 c 0,0.71871 -0.039,0.964846 -0.05859,1.0019531 -0.05239,0.099058 -0.137947,0.1833435 -0.25,0.2382813 a 0.750075,0.750075 0 0 0 -0.002,0.00195 C 11.637659,8.963004 11.364441,9 10.619141,9 H 2.8808594 C 2.1355294,9 1.8601455,8.9628784 1.8085937,8.9375 1.696705,8.8825212 1.6109018,8.7962575 1.5585937,8.6972656 1.5394518,8.6610266 1.5,8.4133594 1.5,7.6933594 V 2.8066406 c 0,-0.2913504 0.014495,-0.2521128 0.023437,-0.40625 L 5.0039062,4.9335937 4.96875,4.8964844 a 0.750075,0.750075 0 0 0 0.087891,0.074219 c 0.4518073,0.3193638 0.7384529,0.5488787 1.1777344,0.6582031 0.3386246,0.084478 0.6926254,0.084478 1.03125,0 C 7.7045993,5.5196583 7.9917854,5.2916326 8.4453125,4.9707031 a 0.750075,0.750075 0 0 0 0.013672,-0.00977 c 0,0 2.0537316,-1.5102373 3.5175786,-2.5625 z"
     id="path1" />
</svg>
