<svg width="24" height="24" viewBox="0 0 24 24" fill="none" xmlns="http://www.w3.org/2000/svg">
<path d="M12 0C18.6274 0 24 5.37258 24 12C24 18.6274 18.6274 24 12 24C5.37258 24 0 18.6274 0 12C0 5.37258 5.37258 0 12 0ZM14.0439 5.97656C12.7854 5.54947 11.4241 5.52727 10.1523 5.91309C8.88081 6.29902 7.76106 7.07368 6.95215 8.12793C6.14347 9.18218 5.68512 10.464 5.6416 11.792C5.59829 13.1202 5.9726 14.4293 6.71094 15.5342C7.44934 16.6391 8.51504 17.486 9.75879 17.9541C11.0026 18.4221 12.3628 18.4885 13.6465 18.1445C13.9278 18.069 14.0948 17.7794 14.0195 17.498C13.944 17.2165 13.6545 17.0497 13.373 17.125C12.3025 17.4118 11.1682 17.3562 10.1309 16.9658C9.0935 16.5753 8.20378 15.8697 7.58789 14.9482C6.97211 14.0268 6.66023 12.9348 6.69629 11.8271C6.73251 10.7194 7.11546 9.64991 7.79004 8.77051C8.46475 7.89118 9.39844 7.24472 10.459 6.92285C11.5198 6.60106 12.6554 6.62031 13.7051 6.97656C14.7547 7.33293 15.6659 8.00922 16.3115 8.91016C16.9571 9.81113 17.3047 10.8916 17.3047 12C17.3048 12.0031 17.3057 12.0066 17.3057 12.0098V12.9746C17.3054 13.2641 17.19 13.5424 16.9854 13.7471C16.7807 13.9514 16.5031 14.0663 16.2139 14.0664C15.9242 14.0664 15.6452 13.9519 15.4404 13.7471C15.2358 13.5424 15.1203 13.2641 15.1201 12.9746V10.0576C15.1201 9.76619 14.8843 9.53029 14.5928 9.53027C14.4138 9.53042 14.2554 9.61952 14.1602 9.75586C13.5993 9.21604 12.839 8.88189 11.999 8.88184C10.2758 8.8821 8.87891 10.2787 8.87891 12.002C8.87929 13.7248 10.2761 15.1218 11.999 15.1221C12.9395 15.122 13.7805 14.703 14.3525 14.0449C14.4458 14.2071 14.5598 14.3586 14.6943 14.4932C15.0971 14.8959 15.6443 15.122 16.2139 15.1221C16.7831 15.1219 17.3297 14.8956 17.7324 14.4932C18.1349 14.0906 18.3611 13.5439 18.3613 12.9746V12.002C18.3613 11.9985 18.3596 11.9947 18.3594 11.9912C18.3576 10.6653 17.9423 9.37282 17.1699 8.29492C16.3957 7.21464 15.3024 6.40378 14.0439 5.97656ZM11.999 9.93652C13.1393 9.93664 14.0635 10.8617 14.0635 12.002C14.0632 13.1419 13.1391 14.0663 11.999 14.0664C10.8591 14.0661 9.93397 13.1418 9.93359 12.002C9.93359 10.8617 10.8588 9.93678 11.999 9.93652Z" fill="#F8F8F8"/>
</svg>
