<svg width="24" height="24" viewBox="0 0 24 24" fill="none" xmlns="http://www.w3.org/2000/svg">
<path d="M5.00008 13.0003L16.1701 13.0003L11.2901 17.8803C10.9001 18.2703 10.9001 18.9103 11.2901 19.3003C11.3826 19.393 11.4925 19.4666 11.6135 19.5168C11.7344 19.5669 11.8641 19.5928 11.9951 19.5928C12.126 19.5928 12.2557 19.5669 12.3767 19.5168C12.4977 19.4666 12.6076 19.393 12.7001 19.3003L19.2901 12.7103C19.3828 12.6178 19.4563 12.5079 19.5065 12.387C19.5567 12.266 19.5825 12.1363 19.5825 12.0053C19.5825 11.8744 19.5567 11.7447 19.5065 11.6237C19.4563 11.5027 19.3828 11.3928 19.2901 11.3003L12.7001 4.71033C12.6075 4.61775 12.4976 4.54431 12.3766 4.49421C12.2557 4.4441 12.126 4.41831 11.9951 4.41831C11.8641 4.41831 11.7345 4.4441 11.6135 4.4942C11.4926 4.54431 11.3827 4.61775 11.2901 4.71033C11.1975 4.80291 11.1241 4.91282 11.074 5.03379C11.0238 5.15475 10.9981 5.2844 10.9981 5.41533C10.9981 5.54626 11.0238 5.67591 11.074 5.79687C11.1241 5.91784 11.1975 6.02775 11.2901 6.12033L16.1701 11.0003L5.00008 11.0003C4.45008 11.0003 4.00008 11.4503 4.00008 12.0003C4.00008 12.5503 4.45008 13.0003 5.00008 13.0003Z" fill="#F9F9F9"/>
</svg>
