<svg width="350" height="184" viewBox="0 0 350 184" fill="none" xmlns="http://www.w3.org/2000/svg">
<path d="M303.257 183.201V0H323.795L326.912 88.892L330.028 0H350V183.201H334.985V80.7661L329.745 183.201H323.371L317.988 80.7661V183.201H303.257Z" fill="#BB0101"/>
<path d="M281.934 150.464H279.066C265.161 150.464 260 139.074 260 125.885V0.188477H278.636V122.887C278.636 125.685 279.353 126.684 280.5 126.684C281.934 126.684 282.507 125.485 282.507 122.887V0.188477H301V125.885C301 138.874 294.836 150.464 281.934 150.464Z" fill="#BB0101"/>
<path d="M230.809 183.201V28.0711H222.735V0H256.588V28.0711H248.514V183.201H230.809Z" fill="#BB0101"/>
<path d="M181 0.188477H198.765L205.566 91.9573L205.427 0.188477H220V169.608H203.762L195.573 68.0473L195.712 169.608H181V0.188477Z" fill="#BB0101"/>
<path d="M143 0.188477H174.558V20.5747H161.286V52.9423H172.493V74.0438H161.286V112.491H175V133.235H143V0.188477Z" fill="#BB0101"/>
<path d="M94.6731 183.201V0H115.212L118.328 88.892L121.444 0H141.416V183.201H126.402V80.7661L121.161 183.201H114.787L109.404 80.7661V183.201H94.6731Z" fill="#BB0101"/>
<path d="M90 34.3436V142.85C90 164.458 82.6483 176.308 71.0552 176.308H68.0862C55.7862 176.308 49 163.994 49 142.85V34.3436C49 13.2 54.7966 0.188477 68.0862 0.188477H70.9138C84.2034 0.188477 90 13.6647 90 34.3436ZM71.6207 145.406V31.0907C71.6207 27.8379 71.0552 25.9791 69.5 25.9791C67.9448 25.9791 67.5207 27.6055 67.5207 31.0907V145.406C67.5207 148.426 68.0862 150.053 69.5 150.053C70.9138 150.053 71.6207 148.426 71.6207 145.406Z" fill="#BB0101"/>
<path d="M0 183.201V0H20.5386L23.6548 88.892L26.771 0H46.7431V183.201H31.7286V80.7661L26.4877 183.201H20.1137L14.7312 80.7661V183.201H0Z" fill="#BB0101"/>
</svg>
