<svg width="739" height="342" viewBox="0 0 739 342" fill="none" xmlns="http://www.w3.org/2000/svg">
<path d="M638.302 338.365V3.15527H682.548L689.261 165.804L695.974 3.15527H739V338.365H706.654V150.936L695.364 338.365H681.632L670.037 150.936V338.365H638.302Z" fill="#BB0101"/>
<path d="M591.91 263.776H585.804C556.19 263.776 545.199 244.019 545.199 221.143V3.12793H584.888V215.944C584.888 220.796 586.415 222.529 588.857 222.529C591.91 222.529 593.132 220.45 593.132 215.944V3.12793H632.516V221.143C632.516 243.672 619.388 263.776 591.91 263.776Z" fill="#BB0101"/>
<path d="M485.228 338.365V54.5181H467.834V3.15527H540.764V54.5181H523.371V338.365H485.228Z" fill="#BB0101"/>
<path d="M377.259 3.15527H416.318L431.27 184.727L430.965 3.15527H463.005V338.365H427.303L409.3 137.419L409.605 338.365H377.259V3.15527Z" fill="#BB0101"/>
<path d="M305.61 3.12793H371.767V37.155H343.944V91.1806H367.439V126.402H343.944V190.576H372.695V225.2H305.61V3.12793Z" fill="#BB0101"/>
<path d="M199.953 338.365V3.15527H244.199L250.912 165.804L257.626 3.15527H300.651V338.365H268.306V150.936L257.015 338.365H243.284L231.688 150.936V338.365H199.953Z" fill="#BB0101"/>
<path d="M194.578 66.231V276.638C194.578 318.54 178.71 341.518 153.689 341.518H147.281C120.733 341.518 106.086 317.638 106.086 276.638V66.231C106.086 25.2309 118.597 0 147.281 0H153.383C182.067 0 194.578 26.132 194.578 66.231ZM154.909 281.594V59.9233C154.909 53.6156 153.689 50.0112 150.332 50.0112C146.975 50.0112 146.06 53.165 146.06 59.9233V281.594C146.06 287.452 147.281 290.605 150.332 290.605C153.383 290.605 154.909 287.452 154.909 281.594Z" fill="#BB0101"/>
<path d="M0 338.365V3.15527H44.2461L50.9593 165.804L57.6725 3.15527H100.698V338.365H68.3525V150.936L57.0622 338.365H43.3306L31.7351 150.936V338.365H0Z" fill="#BB0101"/>
</svg>
