<svg width="106" height="40" viewBox="0 0 106 40" fill="none" xmlns="http://www.w3.org/2000/svg">
<path d="M86.7873 0.190196H91.7144L80.6163 39.978L75.1711 40L86.7873 0.190196Z" fill="white"/>
<path d="M78.3825 35.1395H103.197L106 39.978H77.3084L78.3825 35.1395Z" fill="white"/>
<path d="M82.4785 16.3305L83.2088 20.0915L81.6752 21.6369L82.4785 16.3305Z" fill="white"/>
<path d="M83.4645 12.2401L84.0665 15.4461L83.2088 16.1094L83.4645 12.2401Z" fill="white"/>
<path d="M91.7144 0.190196L98.3532 18.3784L92.8159 17.2973L86.7873 0.190196H91.7144Z" fill="white"/>
<path d="M7.3554 0.305925C5.12887 0.892271 3.16704 2.14212 1.937 3.76228C0.987217 4.99669 0.675814 5.64476 0.302131 7.04891C-1.06804 12.3723 2.35739 17.7729 7.83808 18.8838C10.9365 19.5165 14.1751 18.853 16.8999 17.0014C17.5071 16.5847 17.9898 16.1836 17.9898 16.0755C17.9898 15.9058 15.7944 13.3907 15.5453 13.2981C15.483 13.2673 15.1716 13.4524 14.8602 13.7147C12.26 15.9984 8.14948 15.8132 5.93852 13.329C5.00431 12.2797 4.61506 11.1688 4.63063 9.56402C4.6462 6.09224 6.95058 3.80857 10.4383 3.80857C12.042 3.80857 13.1008 4.16347 14.5021 5.18186C15.0159 5.56761 15.4674 5.86078 15.4986 5.82992C15.5142 5.79906 16.1058 5.13557 16.822 4.3332L18.1144 2.86733L17.694 2.51244C17.0089 1.94152 15.2339 0.969422 14.2374 0.629959C12.1354 -0.0643984 9.31724 -0.20327 7.3554 0.305925Z" fill="white"/>
<path d="M27.9225 0.502654C22.4574 1.93766 19.4057 6.52042 20.5112 11.6741C20.9471 13.7109 22.3017 15.902 23.812 17.0438C27.3776 19.7286 33.232 20.0372 37.0311 17.769C38.7282 16.7506 40.3787 14.7293 41.1572 12.7079C41.6243 11.5198 41.7333 9.00467 41.3907 7.53881C40.5966 4.17503 37.7162 1.42846 34.0416 0.502654C32.4067 0.0860399 29.5418 0.0860399 27.9225 0.502654ZM32.3912 3.97444C35.0692 4.60708 36.7508 6.47413 37.0311 9.12811C37.4359 12.8314 34.3842 15.8557 30.5072 15.5933C28.2028 15.4236 26.3655 14.2509 25.478 12.353C25.0732 11.4735 25.0265 11.2266 25.0265 9.76075C25.0265 8.32574 25.0732 8.03257 25.4469 7.26106C26.7236 4.56079 29.4173 3.28008 32.3912 3.97444Z" fill="white"/>
<path d="M68.9976 0.244182C66.88 0.691657 65.4164 1.75634 64.6379 3.3765C64.2954 4.10172 64.2331 4.45661 64.2331 5.62931C64.2331 6.83286 64.2954 7.12603 64.6691 7.89754C65.5098 9.61029 66.5842 10.1966 70.5546 11.1842C74.2135 12.0945 75.0543 12.5574 75.0543 13.653C75.0543 14.7948 74.089 15.304 71.66 15.3966C70.0563 15.4583 69.7761 15.4275 68.5772 15.0417C67.8609 14.8103 66.8644 14.3782 66.3818 14.1005C65.8991 13.8073 65.4943 13.5913 65.4787 13.6067C65.2763 13.8844 63.6881 16.8162 63.6881 16.9242C63.6881 17.1865 66.0704 18.2357 67.5651 18.6215C68.8107 18.9455 69.4335 19.0227 71.3175 19.0227C73.8399 19.0381 74.9609 18.853 76.3778 18.2049C77.6234 17.6185 78.4642 16.8625 79.0247 15.8749C79.3984 15.1806 79.4918 14.8103 79.5385 13.7301C79.6164 11.9711 79.2583 10.9681 78.1528 9.94975C76.9383 8.82335 75.3813 8.22157 71.5044 7.41921C69.8695 7.06431 69.0754 6.74028 68.7484 6.26194C68.4215 5.79904 68.4526 4.88866 68.8263 4.42575C69.8383 3.14505 73.544 3.31478 76.4089 4.76522C76.7671 4.93495 77.1252 5.08925 77.203 5.08925C77.2809 5.08925 77.6701 4.3486 78.075 3.45365C78.7445 1.91064 78.7756 1.7872 78.5109 1.60204C78.0438 1.24714 75.9574 0.491065 74.7118 0.244182C73.2326 -0.0644208 70.3833 -0.0644208 68.9976 0.244182Z" fill="white"/>
<path d="M48.554 0.259633L44.5369 0.305924V18.8221H48.8965V12.9432L52.6801 13.0358L54.6419 15.9212L56.6037 18.8221H59.0638C61.1813 18.8221 61.5239 18.7913 61.4616 18.5907C61.3526 18.3129 59.6088 15.7361 58.1763 13.7302L57.1331 12.2643L57.5846 12.1563C58.3632 11.9557 59.5309 11.0762 60.0603 10.2892C60.7765 9.22455 60.9634 8.48391 60.9634 6.55514C60.9634 5.02755 60.9167 4.76524 60.543 3.9783C59.9669 2.74389 59.4375 2.09582 58.4877 1.47862C56.6816 0.290493 55.6384 0.167052 48.554 0.259633ZM54.9844 4.16346C56.1366 4.4875 56.8061 5.78363 56.5103 7.12605C56.3079 8.00557 55.8719 8.56106 55.0779 8.93138C54.4706 9.22455 54.1281 9.25541 51.6524 9.25541H48.8965V4.00916H51.668C53.1783 4.00916 54.673 4.08631 54.9844 4.16346Z" fill="white"/>
<path d="M30.6172 25.1793C28.1571 30.6416 24.5137 38.5727 24.2179 39.159L23.9065 39.73L26.4444 39.6991L28.9668 39.6528L29.5896 38.1406L30.2124 36.6439L34.4786 36.6748L38.7448 36.7211L39.3832 38.2178L40.0371 39.73H44.9261L44.5525 38.9122C44.3656 38.4801 43.5248 36.6131 42.6996 34.7923C41.8744 32.9715 40.2707 29.4072 39.1496 26.8766L37.0944 22.2939H31.9407L30.6172 25.1793ZM35.8488 30.0398C36.565 31.6754 37.1567 33.0333 37.1567 33.0487C37.1567 33.0796 35.9733 33.095 34.5097 33.095C32.6413 33.095 31.8628 33.0487 31.8628 32.9253C31.8628 32.8172 32.3299 31.66 32.8904 30.333C33.4665 29.006 34.0271 27.6944 34.1516 27.4013C34.2762 27.1235 34.4163 26.9229 34.463 26.9846C34.5097 27.0309 35.1325 28.4042 35.8488 30.0398Z" fill="white"/>
<path d="M46.4968 22.5948C46.4501 22.7028 46.4345 26.6529 46.4501 31.3591L46.4968 39.9228L52.4134 39.9691C55.6676 39.9846 58.766 39.9691 59.311 39.9228L60.2764 39.8148V36.2967H51.2457V22.4096H48.9102C47.1819 22.4096 46.5435 22.4559 46.4968 22.5948Z" fill="white"/>
<path d="M59.8735 26.028L62.9096 25.9663L65.9458 25.92V39.73H70.4612V25.8428L73.4662 25.812L76.4557 25.7657V22.371L68.1723 22.3247L59.8735 22.2939V26.028Z" fill="white"/>
</svg>
