<svg width="237" height="91" viewBox="0 0 237 91" fill="none" xmlns="http://www.w3.org/2000/svg">
<path d="M194.043 0.432697H205.06L180.246 90.95L168.071 91L194.043 0.432697Z" fill="#1F1F1F"/>
<path d="M175.251 79.9424H230.734L237 90.95H172.85L175.251 79.9424Z" fill="#1F1F1F"/>
<path d="M184.41 37.1518L186.042 45.7081L182.613 49.2239L184.41 37.1518Z" fill="#1F1F1F"/>
<path d="M186.614 27.8463L187.96 35.1399L186.042 36.6488L186.614 27.8463Z" fill="#1F1F1F"/>
<path d="M205.06 0.432697L219.903 41.8108L207.522 39.3513L194.043 0.432697H205.06Z" fill="#1F1F1F"/>
<path d="M16.4456 0.69598C11.4674 2.02992 7.08101 4.87331 4.33083 8.55919C2.20727 11.3675 1.51102 12.8418 0.675519 16.0363C-2.38798 28.147 5.27077 40.4333 17.5248 42.9607C24.4524 44.4 31.6934 42.8905 37.7856 38.6781C39.1433 37.7303 40.2225 36.8176 40.2225 36.5719C40.2225 36.1857 35.3139 30.4638 34.7569 30.2532C34.6177 30.183 33.9214 30.6043 33.2252 31.201C27.4115 36.3963 18.221 35.9751 13.2776 30.3234C11.1889 27.9364 10.3186 25.4089 10.3534 21.7581C10.3882 13.8598 15.5404 8.6645 23.3384 8.6645C26.9241 8.6645 29.2914 9.47188 32.4245 11.7887C33.5733 12.6663 34.5829 13.3333 34.6525 13.2631C34.6873 13.1929 36.0102 11.6834 37.6115 9.85802L40.501 6.52318L39.561 5.7158C38.0293 4.41696 34.0607 2.20544 31.8327 1.43316C27.133 -0.146506 20.8319 -0.462439 16.4456 0.69598Z" fill="#1F1F1F"/>
<path d="M62.4306 1.14354C50.2114 4.40817 43.3882 14.8339 45.8599 26.5585C46.8346 31.1922 49.8633 36.1769 53.2401 38.7746C61.2122 44.8826 74.3017 45.5847 82.7959 40.4245C86.5905 38.1076 90.2806 33.5091 92.0212 28.9105C93.0656 26.2075 93.3093 20.4856 92.5434 17.1508C90.768 9.4982 84.3276 3.24975 76.1119 1.14354C72.4566 0.195741 66.0511 0.195741 62.4306 1.14354ZM72.4218 9.04185C78.4095 10.4811 82.1693 14.7286 82.7959 20.7665C83.701 29.1913 76.8778 36.0716 68.2095 35.4749C63.0572 35.0887 58.9494 32.4209 56.9651 28.1031C56.0599 26.1022 55.9555 25.5405 55.9555 22.2057C55.9555 18.9411 56.0599 18.2741 56.8954 16.5189C59.75 10.3758 65.7726 7.46219 72.4218 9.04185Z" fill="#1F1F1F"/>
<path d="M154.268 0.555515C149.534 1.57352 146.261 3.99567 144.521 7.68155C143.755 9.33142 143.616 10.1388 143.616 12.8067C143.616 15.5448 143.755 16.2117 144.59 17.9669C146.47 21.8634 148.872 23.1973 157.749 25.444C165.93 27.5151 167.81 28.5682 167.81 31.0605C167.81 33.6582 165.652 34.8166 160.221 35.0273C156.635 35.1677 156.009 35.0975 153.328 34.2199C151.727 33.6933 149.499 32.7104 148.42 32.0786C147.34 31.4116 146.435 30.9201 146.401 30.9552C145.948 31.5871 142.397 38.2568 142.397 38.5025C142.397 39.0993 147.723 41.4863 151.065 42.3639C153.85 43.1011 155.243 43.2766 159.455 43.2766C165.095 43.3117 167.601 42.8905 170.769 41.4161C173.554 40.0822 175.434 38.3621 176.687 36.1155C177.523 34.5358 177.732 33.6933 177.836 31.2361C178.01 27.2343 177.21 24.9525 174.738 22.6357C172.022 20.0731 168.541 18.7041 159.873 16.8787C156.218 16.0713 154.442 15.3341 153.711 14.2459C152.98 13.1928 153.05 11.1217 153.885 10.0686C156.148 7.15499 164.433 7.54113 170.839 10.8409C171.64 11.227 172.44 11.578 172.614 11.578C172.788 11.578 173.659 9.89307 174.564 7.85706C176.061 4.3467 176.13 4.06588 175.539 3.64463C174.494 2.83725 169.829 1.11717 167.044 0.555515C163.737 -0.146557 157.366 -0.146557 154.268 0.555515Z" fill="#1F1F1F"/>
<path d="M108.559 0.590665L99.5777 0.695976V42.8203H109.325V29.4458L117.785 29.6565L122.171 36.2208L126.557 42.8203H132.058C136.792 42.8203 137.558 42.7501 137.419 42.2937C137.175 41.6619 133.276 35.7996 130.073 31.2361L127.741 27.9013L128.751 27.6555C130.491 27.1992 133.102 25.1983 134.286 23.408C135.887 20.9859 136.305 19.3009 136.305 14.9129C136.305 11.4377 136.2 10.8409 135.365 9.05063C134.077 6.24235 132.893 4.76799 130.77 3.36385C126.731 0.660873 124.399 0.380044 108.559 0.590665ZM122.937 9.47188C125.513 10.2091 127.01 13.1578 126.349 16.2118C125.896 18.2127 124.921 19.4764 123.146 20.3189C121.788 20.9859 121.022 21.0561 115.487 21.0561H109.325V9.12084H115.522C118.899 9.12084 122.241 9.29636 122.937 9.47188Z" fill="#1F1F1F"/>
<path d="M68.4554 57.2829C62.9551 69.7096 54.8089 87.7529 54.1475 89.0868L53.107 91H59.0518H64.4022L66.1578 86.77L67.5503 83.3649L77.0889 83.4351L86.6275 83.5404L88.0548 86.9455L89.7667 91H100.864L99.6126 88.5252C99.1948 87.5423 97.315 83.2947 95.4699 79.1525C93.6248 75.0103 90.0392 66.9013 87.5327 61.1443L82.9374 50.7186H71.4145L68.4554 57.2829ZM80.1524 68.3406C81.7538 72.0616 83.0767 75.1507 83.0767 75.1858C83.0767 75.256 80.4309 75.2911 77.1586 75.2911C72.9811 75.2911 71.2404 75.1858 71.2404 74.905C71.2404 74.6592 72.2848 72.0265 73.538 69.0076C74.8261 65.9886 76.0794 63.0048 76.3579 62.3379C76.6364 61.706 76.9497 61.2497 77.0541 61.3901C77.1585 61.4954 78.551 64.6196 80.1524 68.3406Z" fill="#1F1F1F"/>
<path d="M103.96 51.4031C103.855 51.6488 103.821 60.6354 103.855 71.342L104.034 91H110.625H117.311C124.841 91 131.38 91 132.569 91H134.769V82.5751H114.578V50.9819H109.356C105.492 50.9819 104.064 51.0872 103.96 51.4031Z" fill="#1F1F1F"/>
<path d="M133.868 59.2136L140.656 59.0732L147.445 58.9679V91H157.538L157.541 58.7924L164.259 58.7222L170.943 58.6169V50.8941L152.423 50.7888L133.868 50.7186V59.2136Z" fill="#1F1F1F"/>
</svg>
